<svg width="65" height="65" viewBox="0 0 65 65" fill="none" xmlns="http://www.w3.org/2000/svg">
<rect x="0.5" y="0.5" width="64" height="64" rx="9.5" fill="#DAF5E9" stroke="#09B96D"/>
<path d="M17.5 43.75L17.5047 36.2903C17.5047 36.0417 17.6035 35.8032 17.7793 35.6274C17.9551 35.4516 18.1935 35.3528 18.4422 35.3528H27.8191C28.6834 35.3528 28.6787 34.5859 28.6787 32.7616C28.6787 30.9372 24.0831 29.4006 24.0831 22.9872C24.0831 16.5737 28.8437 14.6875 32.8 14.6875C36.7562 14.6875 41.0659 16.5737 41.0659 22.9872C41.0659 29.4006 36.4947 30.4206 36.4947 32.7616C36.4947 35.1025 36.4947 35.3528 37.2259 35.3528H46.5634C46.8121 35.3528 47.0505 35.4516 47.2264 35.6274C47.4022 35.8032 47.5009 36.0417 47.5009 36.2903V43.75H17.5Z" stroke="#848484" stroke-width="4" stroke-linejoin="round"/>
<path d="M17.5 49.375H47.5" stroke="#848484" stroke-width="4" stroke-linecap="round" stroke-linejoin="round"/>
</svg>
