<svg width="51" height="50" viewBox="0 0 51 50" fill="none" xmlns="http://www.w3.org/2000/svg">
<rect x="0.0979004" width="50.3497" height="50" rx="5" fill="#0058EA"/>
<path d="M33.75 23.125V22.5C33.75 17.7863 33.75 15.4287 32.285 13.965C30.82 12.5012 28.4637 12.5 23.75 12.5C19.0363 12.5 16.6787 12.5 15.215 13.965C13.7512 15.43 13.75 17.7863 13.75 22.5V30C13.75 32.33 13.75 33.495 14.13 34.4125C14.3813 35.0192 14.7496 35.5705 15.2139 36.0348C15.6783 36.4992 16.2295 36.8675 16.8362 37.1187C17.755 37.5 18.92 37.5 21.25 37.5M18.75 18.75H28.75M18.75 23.75H23.75" stroke="white" stroke-width="1.5" stroke-linecap="round" stroke-linejoin="round"/>
<path d="M29.1037 33.7551C29.0287 32.6451 28.8975 31.4576 28.3525 30.1151C27.8863 28.9701 28.0163 26.2764 30.625 26.2764C33.2337 26.2764 33.3325 28.9701 32.8675 30.1139C32.3225 31.4576 32.22 32.6451 32.1475 33.7551M36.25 37.5001H25V35.9426C25 35.3851 25.3325 34.8939 25.8162 34.7414L28.635 33.8464C28.8367 33.7822 29.0425 33.7501 29.2525 33.7501H31.9975C32.2075 33.7501 32.4133 33.7822 32.615 33.8464L35.4338 34.7414C35.9175 34.8939 36.25 35.3851 36.25 35.9426V37.5001Z" stroke="white" stroke-width="1.5" stroke-linecap="round" stroke-linejoin="round"/>
</svg>
