<svg width="46" height="49" viewBox="0 0 46 49" fill="none" xmlns="http://www.w3.org/2000/svg">
<path d="M23.2104 0.125C22.0557 0.125 20.9084 0.51875 19.92 1.23875L16.8605 3.40625L13.3354 3.875H13.2781L13.2209 3.93313C12.0644 4.19726 11.0055 4.78905 10.1673 5.63974C9.32903 6.49042 8.7459 7.56506 8.48564 8.73875L8.43022 8.79688V8.855L7.96833 12.4887L5.83259 15.3012L5.77347 15.3594V15.4175C4.48205 17.5119 4.42478 20.2156 5.83259 22.2144L8.02561 25.3194L8.60388 28.5444L2.65669 37.7412L0.751892 40.6138H9.58492L11.7207 45.6519L13.049 48.875L14.9538 45.9444L20.7846 37.0381C22.3513 37.6906 24.1194 37.7506 25.6362 37.0381L31.467 45.9444L33.3718 48.875L34.7002 45.6519L36.8359 40.6138H45.669L43.7642 37.7412L37.9907 28.8369L38.4525 25.3212L40.5883 22.2162L40.6474 22.1581V22.1C41.9388 20.0056 41.9961 17.36 40.5883 15.3613L38.4525 12.2544L37.7597 8.73875H37.817C37.8096 8.69375 37.7671 8.66375 37.7597 8.62063C37.4272 6.16813 35.515 4.17688 33.0836 3.875H33.0245L29.5604 3.40625L26.5009 1.23875C25.5456 0.527895 24.3949 0.138427 23.2104 0.125ZM23.2104 3.93313C23.6354 3.93313 24.0548 4.06437 24.3651 4.28562L27.6556 6.6875L28.0602 6.98L28.5221 7.04L32.5645 7.625H32.6199C33.4513 7.71875 34.0277 8.30562 34.1219 9.14937V9.26562L34.8739 13.4262L34.9293 13.8369L35.2194 14.1875L37.586 17.5269C38.0276 18.1494 38.0849 19.205 37.5288 20.105L34.9311 23.7969L34.872 24.2656L34.2956 28.3681V28.4244C34.2644 28.7173 34.1657 28.9987 34.0074 29.2456L33.891 29.3056V29.3619C33.6164 29.6966 33.2226 29.9075 32.7954 29.9487H32.679L28.4648 30.7119L28.0029 30.7681L27.6556 31.0625L24.3651 33.4644C23.7518 33.9125 22.6543 33.9706 21.7675 33.4062L18.7653 31.0625L18.4179 30.77L17.8988 30.71L13.8564 30.125H13.801C13.5399 30.1008 13.2884 30.0137 13.0673 29.8708C12.8462 29.728 12.6619 29.5335 12.5299 29.3038C12.4076 29.0873 12.3291 28.8483 12.2989 28.6006V28.4844L11.5488 24.2075L11.4897 23.7388L11.2015 23.3862L8.83482 20.0469C8.39327 19.4244 8.33599 18.3106 8.8921 17.4106L11.2015 14.3637L11.4897 14.0113L11.547 13.4844L12.068 9.55813C12.0754 9.53 12.1179 9.53 12.1253 9.5C12.2415 9.04917 12.4739 8.63787 12.7986 8.30835C13.1233 7.97883 13.5286 7.74297 13.9728 7.625C14.0024 7.6175 14.0024 7.57437 14.0301 7.56687L17.8988 7.03812L18.3607 6.98187L18.7653 6.6875L22.0557 4.28562C22.3661 4.06625 22.7855 3.93313 23.2104 3.93313ZM35.9695 32.4688L38.7999 36.8638H34.351L33.8891 38.0356L32.6199 41.0225L28.6939 34.9287L29.5585 34.2856L33.1982 33.6406V33.6987C33.2407 33.6912 33.2684 33.6481 33.3127 33.6406C34.2851 33.4982 35.2038 33.0935 35.9695 32.4688ZM10.4514 32.5269C11.2537 33.2671 12.2615 33.7379 13.3372 33.875H13.3945L16.9178 34.3438L17.7251 34.9888L13.7991 41.0225L12.5299 38.0356L12.068 36.8638H7.62285L10.4514 32.5269Z" fill="url(#paint0_linear_1668_4063)"/>
<defs>
<linearGradient id="paint0_linear_1668_4063" x1="23.2104" y1="0.125" x2="23.2104" y2="48.875" gradientUnits="userSpaceOnUse">
<stop stop-color="#EBE34D"/>
<stop offset="1" stop-color="#CCC313"/>
</linearGradient>
</defs>
</svg>
