<svg width="65" height="65" viewBox="0 0 65 65" fill="none" xmlns="http://www.w3.org/2000/svg">
<rect x="0.5" y="0.5" width="64" height="64" rx="9.5" fill="#DAF5E9" stroke="#09B96D"/>
<path d="M33 11C31.9717 11 30.95 11.3554 30.0698 12.0052L27.3452 13.9615L24.206 14.3846H24.155L24.104 14.4371C23.0741 14.6755 22.1311 15.2096 21.3847 15.9774C20.6382 16.7452 20.1189 17.7151 19.8871 18.7745L19.8378 18.8269V18.8794L19.4265 22.1591L17.5245 24.6975L17.4719 24.75V24.8025C16.3218 26.6928 16.2708 29.1331 17.5245 30.9371L19.4775 33.7395L19.9924 36.6503L14.6963 44.9511L13 47.5437H20.8661L22.768 52.0909L23.951 55L25.6473 52.3549L30.8398 44.3165C32.2349 44.9054 33.8095 44.9595 35.1602 44.3165L40.3527 52.3549L42.049 55L43.232 52.0909L45.1339 47.5437H53L51.3037 44.9511L46.1622 36.9143L46.5735 33.7412L48.4755 30.9388L48.5281 30.8863V30.8338C49.6782 28.9435 49.7292 26.5557 48.4755 24.7517L46.5735 21.9475L45.9566 18.7745H46.0076C46.001 18.7338 45.9631 18.7068 45.9566 18.6678C45.6604 16.4543 43.9576 14.6571 41.7924 14.3846H41.7397L38.6548 13.9615L35.9302 12.0052C35.0795 11.3636 34.0548 11.0121 33 11ZM33 14.4371C33.3784 14.4371 33.7519 14.5555 34.0283 14.7552L36.9585 16.9231L37.3189 17.1871L37.7302 17.2412L41.33 17.7692H41.3794C42.1198 17.8538 42.6331 18.3835 42.717 19.1451V19.25L43.3866 23.0052L43.436 23.3758L43.6943 23.6923L45.8019 26.7063C46.1951 27.2682 46.2461 28.2209 45.7509 29.0332L43.4376 32.3654L43.385 32.7885L42.8717 36.4912V36.542C42.8439 36.8064 42.756 37.0603 42.615 37.2832L42.5114 37.3374V37.3882C42.2668 37.6902 41.9161 37.8806 41.5357 37.9178H41.432L37.6792 38.6066L37.2679 38.6574L36.9585 38.9231L34.0283 41.0909C33.4821 41.4954 32.5048 41.5478 31.715 41.0385L29.0415 38.9231L28.7321 38.6591L28.2698 38.6049L24.67 38.0769H24.6206C24.3881 38.0551 24.1641 37.9765 23.9672 37.8475C23.7703 37.7186 23.6062 37.5431 23.4886 37.3357C23.3797 37.1403 23.3098 36.9246 23.283 36.7011V36.5962L22.615 32.736L22.5624 32.3129L22.3057 31.9948L20.1981 28.9808C19.8049 28.4189 19.7539 27.4137 20.2491 26.6014L22.3057 23.8514L22.5624 23.5332L22.6134 23.0577L23.0773 19.514C23.0839 19.4886 23.1217 19.4886 23.1283 19.4615C23.2318 19.0546 23.4388 18.6834 23.728 18.386C24.0171 18.0886 24.378 17.8757 24.7736 17.7692C24.7999 17.7625 24.7999 17.7235 24.8246 17.7168L28.2698 17.2395L28.6811 17.1888L29.0415 16.9231L31.9717 14.7552C32.2481 14.5572 32.6216 14.4371 33 14.4371ZM44.3623 40.1923L46.8829 44.1591H42.921L42.5097 45.2168L41.3794 47.9126L37.8832 42.4126L38.6532 41.8322L41.8944 41.25V41.3025C41.9322 41.2957 41.9569 41.2568 41.9964 41.25C42.8623 41.1215 43.6805 40.7562 44.3623 40.1923ZM21.6377 40.2448C22.3521 40.9128 23.2496 41.3378 24.2076 41.4615H24.2586L27.3962 41.8846L28.1152 42.4668L24.619 47.9126L23.4886 45.2168L23.0773 44.1591H19.1188L21.6377 40.2448Z" fill="#848484"/>
</svg>
