<svg width="24" height="24" viewBox="0 0 24 24" fill="none" xmlns="http://www.w3.org/2000/svg">
<path d="M2.75 16.4769C4.83 18.7074 7.7295 18.3749 9.446 18.3224M2.75 13.6869C4.6425 15.8469 7.1525 16.0179 9.532 15.7469M9.2885 8.72691C1.7125 7.13791 0.7775 13.9939 9.2885 13.2039M10.697 18.1509C12.6735 20.2009 19.3455 20.6609 21.25 17.9359M10.697 15.0174C12.1775 17.7424 19.0555 17.7054 21.25 15.2324M10.697 12.3349C13.787 15.5744 19.447 14.4659 21.25 12.3349" stroke="#939185" stroke-linecap="round" stroke-linejoin="round"/>
<path d="M10.697 9.6521C12.645 12.3351 19.057 12.4131 21.25 9.6951" stroke="#939185" stroke-linecap="round" stroke-linejoin="round"/>
<path d="M15.9825 9.11404C18.7086 9.11404 20.9185 8.00617 20.9185 6.63954C20.9185 5.27291 18.7086 4.16504 15.9825 4.16504C13.2564 4.16504 11.0465 5.27291 11.0465 6.63954C11.0465 8.00617 13.2564 9.11404 15.9825 9.11404Z" stroke="#939185" stroke-linecap="round" stroke-linejoin="round"/>
<path d="M9.28851 8.72705V13.2041" stroke="#939185" stroke-linecap="round" stroke-linejoin="round"/>
</svg>
