<svg width="51" height="50" viewBox="0 0 51 50" fill="none" xmlns="http://www.w3.org/2000/svg">
<rect x="0.0979004" width="50.3497" height="50" rx="5" fill="#09B96D"/>
<path d="M30 29.7V17.8125C30 17.1495 29.7366 16.5136 29.2678 16.0447C28.7989 15.5759 28.163 15.3125 27.5 15.3125H15C14.337 15.3125 13.7011 15.5759 13.2322 16.0447C12.7634 16.5136 12.5 17.1495 12.5 17.8125V29.0625C12.5 29.394 12.6317 29.712 12.8661 29.9464C13.1005 30.1808 13.4185 30.3125 13.75 30.3125H14.6375C14.8812 29.7561 15.2817 29.2829 15.79 28.9505C16.2984 28.6182 16.8926 28.4412 17.5 28.4412C18.1074 28.4412 18.7016 28.6182 19.21 28.9505C19.7183 29.2829 20.1188 29.7561 20.3625 30.3125H29.6375C29.7292 30.0917 29.85 29.8875 30 29.7ZM30 29.7C30.3249 29.2594 30.7602 28.9122 31.262 28.6935C31.7639 28.4749 32.3146 28.3924 32.8585 28.4546C33.4024 28.5167 33.9203 28.7212 34.3599 29.0474C34.7996 29.3736 35.1454 29.81 35.3625 30.3125H37.5V26.7C37.5005 25.7929 37.2542 24.9028 36.7875 24.125L35.25 21.5625L34.1125 19.675C34.0019 19.4884 33.8446 19.3338 33.6561 19.2264C33.4676 19.119 33.2544 19.0625 33.0375 19.0625H30V29.7Z" stroke="white" stroke-width="1.5" stroke-linecap="round" stroke-linejoin="round"/>
<path d="M23.75 24.0625H17.5M23.75 20.3125H17.5M20.625 31.5625C20.6255 32.0274 20.5224 32.4865 20.323 32.9065C20.1236 33.3264 19.833 33.6966 19.4725 33.99C19.1119 34.2835 18.6904 34.4927 18.2387 34.6026C17.787 34.7125 17.3164 34.7202 16.8614 34.6252C16.4063 34.5302 15.9782 34.3349 15.6081 34.0534C15.2381 33.772 14.9356 33.4116 14.7225 32.9984C14.5095 32.5852 14.3913 32.1297 14.3766 31.6651C14.3619 31.2004 14.451 30.7383 14.6375 30.3125C14.9253 29.6555 15.4303 29.1174 16.0678 28.7887C16.7053 28.46 17.4365 28.3605 18.1386 28.5071C18.8408 28.6537 19.4711 29.0374 19.9239 29.5937C20.3766 30.1501 20.6242 30.8452 20.625 31.5625ZM35.625 31.5625C35.6255 32.0274 35.5224 32.4865 35.323 32.9065C35.1236 33.3264 34.833 33.6966 34.4725 33.99C34.1119 34.2835 33.6904 34.4927 33.2387 34.6026C32.787 34.7125 32.3164 34.7202 31.8614 34.6252C31.4063 34.5302 30.9782 34.3349 30.6081 34.0534C30.2381 33.772 29.9356 33.4116 29.7225 32.9984C29.5095 32.5852 29.3913 32.1297 29.3766 31.6651C29.3619 31.2004 29.451 30.7383 29.6375 30.3125C29.7292 30.0917 29.85 29.8875 30 29.7C30.3248 29.2594 30.7602 28.9122 31.262 28.6935C31.7639 28.4749 32.3146 28.3924 32.8585 28.4546C33.4024 28.5167 33.9203 28.7212 34.3599 29.0474C34.7995 29.3736 35.1454 29.81 35.3625 30.3125C35.5375 30.7062 35.6275 31.1325 35.625 31.5625Z" stroke="white" stroke-width="1.5" stroke-linecap="round" stroke-linejoin="round"/>
</svg>
