<svg width="24" height="24" viewBox="0 0 24 24" fill="none" xmlns="http://www.w3.org/2000/svg">
<path d="M10.95 2.054L10.945 2.047L10.932 2.057C5.912 2.59 2 6.837 2 12C2 14.312 2.785 16.441 4.103 18.135V18.137H4.105C4.93872 19.2098 5.9823 20.1015 7.17207 20.7575C8.36183 21.4136 9.67281 21.8204 11.025 21.953C11.072 21.477 11.188 20.979 11.362 20.476C9.20473 20.3156 7.19032 19.3368 5.731 17.74C5.786 17.5 5.811 17.221 5.831 16.979L5.84 16.861C5.858 16.641 5.875 16.429 5.903 16.215C5.973 15.688 6.093 15.336 6.28 15.137C6.52 14.88 6.766 14.837 7.281 14.746L7.374 14.729C7.638 14.683 7.991 14.612 8.331 14.427C8.694 14.229 9.001 13.927 9.232 13.482C9.465 13.034 9.448 12.572 9.384 12.207C9.32578 11.9147 9.24896 11.6265 9.154 11.344L9.108 11.196C8.903 10.528 8.878 10.203 9.047 9.946C9.231 9.666 9.483 9.602 10.139 9.432L10.224 9.411C10.89 9.239 11.792 8.951 12.314 7.838C12.88 6.633 12.561 5.274 12.214 4.352C12.1044 4.06244 11.9799 3.77873 11.841 3.502C11.8937 3.50067 11.9467 3.5 12 3.5C13.6053 3.49755 15.1782 3.9519 16.535 4.81C16.343 5.065 16.086 5.401 15.799 5.76C15.169 6.547 14.459 7.357 13.975 7.72C13.7527 7.88339 13.5836 8.10883 13.489 8.368C13.4083 8.60395 13.3893 8.85665 13.434 9.102C13.504 9.518 13.725 9.908 13.921 10.206C14.084 10.455 14.276 10.706 14.437 10.918L14.547 11.061C14.6403 11.1843 14.716 11.29 14.774 11.378C14.8027 11.4213 14.824 11.456 14.838 11.482L14.858 11.521C14.8973 11.631 14.9417 11.811 14.991 12.061L15.013 12.167C15.457 11.969 15.938 11.817 16.453 11.722C16.4083 11.4777 16.3455 11.237 16.265 11.002C16.155 10.705 15.916 10.386 15.744 10.158L15.614 9.988C15.4609 9.79136 15.3144 9.58958 15.175 9.383C15.02 9.147 14.945 8.984 14.92 8.885C15.57 8.383 16.368 7.449 16.97 6.698C17.266 6.328 17.53 5.983 17.727 5.719C19.3762 7.22 20.3678 9.31021 20.487 11.537C21.067 11.583 21.567 11.659 21.997 11.748C21.863 6.342 17.439 2 12 2C11.6453 2 11.2953 2.018 10.95 2.054ZM4.436 15.881C3.84003 14.7189 3.51975 13.4352 3.49999 12.1294C3.48022 10.8236 3.76151 9.53078 4.32204 8.35122C4.88256 7.17166 5.70726 6.13707 6.73216 5.32768C7.75707 4.51829 8.95464 3.95585 10.232 3.684C10.2653 3.74 10.304 3.80767 10.348 3.887C10.487 4.137 10.661 4.484 10.81 4.88C11.125 5.715 11.252 6.571 10.957 7.2C10.732 7.678 10.412 7.813 9.849 7.958L9.687 7.998C9.155 8.127 8.316 8.329 7.794 9.121C7.193 10.033 7.489 11.032 7.674 11.636L7.734 11.828C7.814 12.083 7.874 12.278 7.906 12.464C7.944 12.681 7.916 12.761 7.902 12.789C7.802 12.982 7.702 13.061 7.614 13.109C7.504 13.169 7.36 13.209 7.112 13.252C7.072 13.26 7.02867 13.2673 6.982 13.274C6.519 13.35 5.783 13.471 5.184 14.114C4.698 14.634 4.521 15.324 4.436 15.881ZM12.007 22.205C12.067 21.24 12.502 20.063 13.24 18.954C13.479 18.548 13.774 18.137 14.126 17.736C15.3127 16.3864 16.8801 15.4277 18.622 14.986C18.7508 14.9538 18.8615 14.8717 18.9297 14.7579C18.998 14.6441 19.0182 14.5078 18.986 14.379C18.9538 14.2502 18.8717 14.1395 18.7579 14.0713C18.6441 14.003 18.5078 13.9828 18.379 14.015C16.4397 14.5062 14.6947 15.5734 13.374 17.076C13.107 17.381 12.864 17.698 12.648 18.019C12.5501 17.6882 12.5003 17.345 12.5 17C12.5 16.083 12.967 15.087 13.707 14.297C14.5511 13.3994 15.6801 12.822 16.902 12.663C19.702 12.293 21.44 12.603 22.465 12.89C22.6034 12.9288 22.7278 13.0066 22.8233 13.114C22.9188 13.2215 22.9814 13.3542 23.0036 13.4962C23.0259 13.6382 23.0068 13.7837 22.9487 13.9152C22.8906 14.0467 22.796 14.1588 22.676 14.238C22.619 14.276 22.527 14.368 22.416 14.578C22.2852 14.843 22.1781 15.1191 22.096 15.403C22.009 15.687 21.926 15.994 21.836 16.328L21.778 16.54C21.667 16.95 21.544 17.39 21.396 17.826C21.104 18.688 20.692 19.608 19.999 20.314C19.28 21.047 18.304 21.504 17 21.504C15.671 21.504 14.743 20.965 14.15 20.345C13.746 21.085 13.536 21.782 13.504 22.296C13.4886 22.492 13.3968 22.6741 13.2485 22.8031C13.1001 22.9321 12.907 22.9977 12.7108 22.9858C12.5146 22.9739 12.3308 22.8854 12.1992 22.7393C12.0676 22.5933 11.9986 22.4014 12.007 22.205Z" fill="#939185"/>
</svg>
