<svg width="20" height="20" viewBox="0 0 20 20" fill="none" xmlns="http://www.w3.org/2000/svg">
<path d="M9.99999 18.3334C8.84721 18.3334 7.76388 18.1145 6.74999 17.6767C5.7361 17.239 4.85416 16.6454 4.10416 15.8959C3.35416 15.1465 2.76055 14.2645 2.32332 13.2501C1.8861 12.2356 1.66721 11.1523 1.66666 10.0001C1.6661 8.84786 1.88499 7.76453 2.32332 6.75008C2.76166 5.73564 3.35527 4.85369 4.10416 4.10425C4.85305 3.3548 5.73499 2.76119 6.74999 2.32341C7.76499 1.88564 8.84832 1.66675 9.99999 1.66675C11.1517 1.66675 12.235 1.88564 13.25 2.32341C14.265 2.76119 15.1469 3.3548 15.8958 4.10425C16.6447 4.85369 17.2386 5.73564 17.6775 6.75008C18.1164 7.76453 18.335 8.84786 18.3333 10.0001C18.3317 11.1523 18.1128 12.2356 17.6767 13.2501C17.2405 14.2645 16.6469 15.1465 15.8958 15.8959C15.1447 16.6454 14.2628 17.2392 13.25 17.6776C12.2372 18.1159 11.1539 18.3345 9.99999 18.3334ZM9.99999 16.6667C11.8611 16.6667 13.4375 16.0209 14.7292 14.7292C16.0208 13.4376 16.6667 11.8612 16.6667 10.0001C16.6667 9.90286 16.6633 9.80203 16.6567 9.69758C16.65 9.59314 16.6464 9.50647 16.6458 9.43758C16.5764 9.84036 16.3889 10.1737 16.0833 10.4376C15.7778 10.7015 15.4167 10.8334 15 10.8334H13.3333C12.875 10.8334 12.4828 10.6704 12.1567 10.3442C11.8305 10.0181 11.6672 9.62564 11.6667 9.16675V8.33342H8.33332V6.66675C8.33332 6.20842 8.49666 5.81619 8.82332 5.49008C9.14999 5.16397 9.54221 5.00064 9.99999 5.00008H10.8333C10.8333 4.68064 10.9203 4.39953 11.0942 4.15675C11.268 3.91397 11.4797 3.71591 11.7292 3.56258C11.4514 3.49314 11.1703 3.43758 10.8858 3.39591C10.6014 3.35425 10.3061 3.33341 9.99999 3.33341C8.13888 3.33341 6.56249 3.97925 5.27082 5.27091C3.97916 6.56258 3.33332 8.13897 3.33332 10.0001H7.49999C8.41666 10.0001 9.20138 10.3265 9.85416 10.9792C10.5069 11.632 10.8333 12.4167 10.8333 13.3334V14.1667H8.33332V16.4584C8.6111 16.5279 8.88555 16.5801 9.15666 16.6151C9.42777 16.6501 9.70888 16.6673 9.99999 16.6667Z" fill="#09B96D"/>
</svg>
