<svg width="24" height="24" viewBox="0 0 24 24" fill="none" xmlns="http://www.w3.org/2000/svg">
<g clip-path="url(#clip0_1668_3954)">
<path d="M19.5 18C19.1022 18 18.7206 18.1581 18.4393 18.4394C18.158 18.7207 18 19.1022 18 19.5C18 19.557 18.0105 19.6118 18.0173 19.6673C16.304 21.0206 14.1833 21.7546 12 21.75C6.624 21.75 2.25 17.3768 2.25 12C2.25 10.4138 2.619 8.90029 3.3465 7.50304L2.016 6.81079C1.18491 8.41434 0.750754 10.1939 0.75 12C0.75 18.2033 5.79675 23.25 12 23.25C14.5305 23.25 16.9365 22.41 18.9037 20.8755C19.1082 20.9645 19.33 21.0067 19.5529 20.9992C19.7757 20.9916 19.9941 20.9345 20.1921 20.8319C20.3901 20.7293 20.5627 20.5839 20.6975 20.4062C20.8322 20.2285 20.9256 20.0229 20.9708 19.8046C21.0161 19.5862 21.0121 19.3605 20.9592 19.1439C20.9062 18.9273 20.8057 18.7252 20.6648 18.5524C20.5239 18.3795 20.3462 18.2402 20.1448 18.1447C19.9433 18.0491 19.723 17.9997 19.5 18Z" fill="#939185"/>
<path d="M9.75 17.25V18.75H8.25V17.25H9.75ZM9.75 6.75V8.25H8.25V6.75H9.75ZM9.75 12V13.5H8.25V12H9.75Z" fill="#939185"/>
<path d="M12 0.75C9.4695 0.75 7.0635 1.59 5.09625 3.1245C4.79998 2.99616 4.47021 2.96684 4.15594 3.04089C3.84168 3.11495 3.5597 3.28844 3.35191 3.53556C3.14412 3.78269 3.02162 4.09026 3.0026 4.41258C2.98359 4.73489 3.06909 5.05473 3.24638 5.32457C3.42367 5.59442 3.6833 5.79985 3.98668 5.91034C4.29006 6.02083 4.621 6.03048 4.9303 5.93786C5.2396 5.84524 5.51076 5.65529 5.70348 5.39624C5.8962 5.13719 6.0002 4.82287 6 4.5C6 4.443 5.9895 4.38825 5.98275 4.33275C7.69604 2.97945 9.8167 2.24542 12 2.25C13.2405 2.25 14.25 3.2595 14.25 4.5C14.25 5.7405 13.2405 6.75 12 6.75H11.25V8.25H12C14.0678 8.25 15.75 6.56775 15.75 4.5C15.749 4.32 15.7358 4.1435 15.7103 3.9705C16.4621 4.84957 16.8751 5.96829 16.875 7.125C16.875 9.813 14.688 12 12 12H11.25V13.5H12C15.5153 13.5 18.375 10.6403 18.375 7.125C18.375 6.55125 18.2917 5.997 18.1485 5.4675C19.0285 6.72216 19.5004 8.21752 19.5 9.75C19.5 13.8855 16.1355 17.25 12 17.25H11.25V18.75H12C16.9628 18.75 21 14.7128 21 9.75C21 9.075 20.9205 8.4195 20.7795 7.7865C21.4167 9.0998 21.7485 10.5403 21.75 12C21.75 13.5863 21.381 15.0998 20.6535 16.497L21.984 17.1893C22.8151 15.5857 23.2492 13.8061 23.25 12C23.25 5.79675 18.2033 0.75 12 0.75Z" fill="#939185"/>
</g>
<defs>
<clipPath id="clip0_1668_3954">
<rect width="24" height="24" fill="#939185"/>
</clipPath>
</defs>
</svg>
