<svg width="24" height="24" viewBox="0 0 24 24" fill="none" xmlns="http://www.w3.org/2000/svg">
<path d="M12 4.7596C9.7695 2.5291 6.1535 2.5296 3.923 4.7596C1.6925 6.9896 1.6925 10.6061 3.923 12.8366L12 20.9136L20.077 12.8366" stroke="#939185" stroke-linecap="round" stroke-linejoin="round"/>
<path d="M3.923 12.8365L12 20.9135L20.077 12.8365C22.3075 10.606 22.3075 6.98954 20.077 4.75954C17.8465 2.52954 14.2305 2.52855 12 4.75954M9.3075 7.45154C9.13142 7.27155 8.92139 7.12827 8.68956 7.03C8.45773 6.93172 8.20871 6.88041 7.95692 6.87903C7.70513 6.87764 7.45556 6.92622 7.22266 7.02194C6.98977 7.11766 6.77817 7.25862 6.60013 7.43667C6.42208 7.61471 6.28111 7.82631 6.1854 8.05921C6.08968 8.2921 6.0411 8.54167 6.04249 8.79346C6.04387 9.04525 6.09518 9.29427 6.19346 9.5261C6.29173 9.75793 6.43501 9.96796 6.615 10.144L12 4.75904" stroke="#939185" stroke-linecap="round" stroke-linejoin="round"/>
<path d="M6.61501 15.5289L14.6925 7.45143C14.8682 7.26956 15.0783 7.12449 15.3106 7.0247C15.5429 6.9249 15.7928 6.87238 16.0456 6.87019C16.2984 6.868 16.5492 6.91619 16.7832 7.01195C17.0172 7.1077 17.2298 7.24911 17.4085 7.42791C17.5873 7.60671 17.7287 7.81933 17.8244 8.05336C17.9201 8.28738 17.9682 8.53813 17.966 8.79096C17.9638 9.04379 17.9112 9.29365 17.8114 9.52594C17.7115 9.75824 17.5664 9.96832 17.3845 10.1439L12 15.5289" stroke="#939185" stroke-linecap="round" stroke-linejoin="round"/>
</svg>
