<svg width="65" height="65" viewBox="0 0 65 65" fill="none" xmlns="http://www.w3.org/2000/svg">
<rect x="0.5" y="0.5" width="64" height="64" rx="9.5" fill="#DAF5E9" stroke="#09B96D"/>
<g clip-path="url(#clip0_1668_4425)">
<path d="M44.6875 45.25V40H42.8125V46L46.8438 50.0312L48.1562 48.7188L44.6875 45.25ZM32.5 17.5L21.3906 23.9219L32.5 30.3438L43.6094 23.9219L32.5 17.5ZM15.625 39.9531V25.0469C15.625 24.3594 15.7894 23.7344 16.1181 23.1719C16.4469 22.6094 16.9075 22.1562 17.5 21.8125L30.625 14.2656C30.9375 14.1094 31.2425 13.9844 31.54 13.8906C31.8375 13.7969 32.1575 13.75 32.5 13.75C32.8425 13.75 33.1706 13.7969 33.4844 13.8906C33.7981 13.9844 34.095 14.1094 34.375 14.2656L47.5 21.8125C48.0938 22.1562 48.555 22.6094 48.8838 23.1719C49.2125 23.7344 49.3763 24.3594 49.375 25.0469V32.5H45.625V27.0625L32.4531 34.6562L19.375 27.0625V39.9062L30.625 46.4219V50.7344L17.5 43.1875C16.9062 42.8438 16.4456 42.3906 16.1181 41.8281C15.7906 41.2656 15.6262 40.6406 15.625 39.9531ZM43.75 55C41.1562 55 38.9456 54.0856 37.1181 52.2569C35.2906 50.4281 34.3762 48.2175 34.375 45.625C34.3738 43.0325 35.2881 40.8219 37.1181 38.9931C38.9481 37.1644 41.1588 36.25 43.75 36.25C46.3412 36.25 48.5525 37.1644 50.3838 38.9931C52.215 40.8219 53.1287 43.0325 53.125 45.625C53.1213 48.2175 52.2069 50.4287 50.3819 52.2588C48.5569 54.0887 46.3463 55.0025 43.75 55Z" fill="#848484"/>
</g>
<defs>
<clipPath id="clip0_1668_4425">
<rect width="45" height="45" fill="white" transform="translate(10 10)"/>
</clipPath>
</defs>
</svg>
