<svg width="20" height="20" viewBox="0 0 20 20" fill="none" xmlns="http://www.w3.org/2000/svg">
<path d="M16.6667 15.8334V8.75008C16.6667 8.62071 16.6365 8.49312 16.5787 8.3774C16.5208 8.26169 16.4368 8.16104 16.3333 8.08341L10.5 3.70841C10.3558 3.60023 10.1803 3.54175 10 3.54175C9.81969 3.54175 9.64425 3.60023 9.5 3.70841L3.66667 8.08341C3.56317 8.16104 3.47917 8.26169 3.42131 8.3774C3.36346 8.49312 3.33334 8.62071 3.33334 8.75008V15.8334C3.33334 16.0544 3.42113 16.2664 3.57741 16.4227C3.73369 16.579 3.94566 16.6667 4.16667 16.6667H7.5C7.72102 16.6667 7.93298 16.579 8.08926 16.4227C8.24554 16.2664 8.33334 16.0544 8.33334 15.8334V13.3334C8.33334 13.1124 8.42113 12.9004 8.57741 12.7442C8.73369 12.5879 8.94566 12.5001 9.16667 12.5001H10.8333C11.0543 12.5001 11.2663 12.5879 11.4226 12.7442C11.5789 12.9004 11.6667 13.1124 11.6667 13.3334V15.8334C11.6667 16.0544 11.7545 16.2664 11.9107 16.4227C12.067 16.579 12.279 16.6667 12.5 16.6667H15.8333C16.0543 16.6667 16.2663 16.579 16.4226 16.4227C16.5789 16.2664 16.6667 16.0544 16.6667 15.8334Z" fill="#09B96D" stroke="#09B96D" stroke-width="2" stroke-linecap="round" stroke-linejoin="round"/>
</svg>
