<svg width="65" height="65" viewBox="0 0 65 65" fill="none" xmlns="http://www.w3.org/2000/svg">
<rect x="0.5" y="0.5" width="64" height="64" rx="9.5" fill="#DAF5E9" stroke="#09B96D"/>
<path fill-rule="evenodd" clip-rule="evenodd" d="M30.625 26.875V34.6938C29.3734 35.1361 28.3186 36.0066 27.6468 37.1515C26.9751 38.2964 26.7297 39.6419 26.9541 40.9502C27.1785 42.2585 27.8582 43.4454 28.873 44.301C29.8879 45.1566 31.1726 45.6259 32.5 45.6259C33.8274 45.6259 35.1121 45.1566 36.1269 44.301C37.1418 43.4454 37.8215 42.2585 38.0459 40.9502C38.2703 39.6419 38.0249 38.2964 37.3532 37.1515C36.6814 36.0066 35.6265 35.1361 34.375 34.6938V26.875H30.625ZM30.625 40C30.625 39.5027 30.8225 39.0258 31.1742 38.6742C31.5258 38.3225 32.0027 38.125 32.5 38.125C32.9973 38.125 33.4742 38.3225 33.8258 38.6742C34.1775 39.0258 34.375 39.5027 34.375 40C34.375 40.4973 34.1775 40.9742 33.8258 41.3258C33.4742 41.6775 32.9973 41.875 32.5 41.875C32.0027 41.875 31.5258 41.6775 31.1742 41.3258C30.8225 40.9742 30.625 40.4973 30.625 40Z" fill="#848484"/>
<path d="M32.5 19.375C35.981 19.375 39.3194 20.7578 41.7808 23.2192C44.2422 25.6806 45.625 29.019 45.625 32.5V34.375H41.875V32.5C41.875 30.0136 40.8873 27.629 39.1291 25.8709C37.371 24.1127 34.9864 23.125 32.5 23.125C30.0136 23.125 27.629 24.1127 25.8709 25.8709C24.1127 27.629 23.125 30.0136 23.125 32.5V34.375H19.375V32.5C19.375 29.019 20.7578 25.6806 23.2192 23.2192C25.6806 20.7578 29.019 19.375 32.5 19.375Z" fill="#848484"/>
<path fill-rule="evenodd" clip-rule="evenodd" d="M32.5 53.125C43.8906 53.125 53.125 43.8906 53.125 32.5C53.125 21.1094 43.8906 11.875 32.5 11.875C21.1094 11.875 11.875 21.1094 11.875 32.5C11.875 43.8906 21.1094 53.125 32.5 53.125ZM32.5 49.375C34.7161 49.375 36.9104 48.9385 38.9578 48.0905C41.0052 47.2424 42.8654 45.9994 44.4324 44.4324C45.9994 42.8654 47.2424 41.0052 48.0905 38.9578C48.9385 36.9104 49.375 34.7161 49.375 32.5C49.375 30.2839 48.9385 28.0896 48.0905 26.0422C47.2424 23.9948 45.9994 22.1346 44.4324 20.5676C42.8654 19.0006 41.0052 17.7576 38.9578 16.9095C36.9104 16.0615 34.7161 15.625 32.5 15.625C28.0245 15.625 23.7323 17.4029 20.5676 20.5676C17.4029 23.7322 15.625 28.0245 15.625 32.5C15.625 36.9755 17.4029 41.2677 20.5676 44.4324C23.7323 47.5971 28.0245 49.375 32.5 49.375Z" fill="#848484"/>
</svg>
