<svg width="65" height="65" viewBox="0 0 65 65" fill="none" xmlns="http://www.w3.org/2000/svg">
<rect x="0.5" y="0.5" width="64" height="64" rx="9.5" fill="#DAF5E9" stroke="#09B96D"/>
<path d="M53.5234 41.5C52.75 39.1094 50.2188 37.7734 47.8281 38.4062L39.3203 40.4453C39.1094 38.4062 37.4922 36.7188 35.2422 36.3672H26.2422C25.5391 35.3125 24.4141 34.6094 23.0078 34.6094H15.625C13.2344 34.6094 11.1953 36.5781 11.1953 39.0391V47.7578C11.1953 50.1484 13.1641 52.1875 15.625 52.1875H23.0078C24.0625 52.1875 25.1172 51.7656 25.8203 50.9922C25.9609 50.8516 26.0312 50.7109 26.1719 50.5703C28.2109 51.5547 30.3906 52.1172 32.5703 52.1172C33.9062 52.1172 35.2422 51.9062 36.5078 51.5547L47.2656 48.3203L50.2891 47.4062C51.4844 47.0547 52.5391 46.2812 53.1719 45.1562C53.8047 44.1016 53.9453 42.7656 53.5234 41.5ZM23.5703 48.6016C23.4297 48.7422 23.2187 48.8125 23.0078 48.8125H15.625C14.9219 48.8125 14.3594 48.25 14.3594 47.5469V38.8984C14.3594 38.1953 14.9219 37.6328 15.625 37.6328H23.1484C23.5 37.6328 23.7812 37.9141 23.7812 38.2656V48.1094C23.7812 48.3906 23.6406 48.5312 23.5703 48.6016ZM50.4297 43.6797C50.2188 44.0312 49.9375 44.3125 49.5156 44.3828L46.4219 45.2969L35.7344 48.3203C32.9922 49.0938 30.1094 48.8125 27.5781 47.5469L26.9453 47.1953V39.4609H35.0312C35.8047 39.6016 36.2969 40.1641 36.2969 40.7969V41.1484L33.9062 41.7109C33.0625 41.9219 32.5 42.7656 32.7109 43.6094C32.9219 44.4531 33.7656 45.0156 34.6094 44.8047L48.6719 41.4297C49.4453 41.2188 50.2891 41.6406 50.5703 42.4141C50.6406 42.8359 50.6406 43.3281 50.4297 43.6797ZM43.2578 25.1172H46.8438C47.8984 25.1172 48.8125 26.0312 48.8125 27.0859C48.8125 28.1406 47.8984 29.0547 46.8438 29.0547H41.4297C40.5859 29.0547 39.8125 29.7578 39.8125 30.6719C39.8125 31.5859 40.5156 32.2891 41.4297 32.2891H43.3984V32.5C43.3984 33.3438 44.1016 34.1172 45.0156 34.1172C45.9297 34.1172 46.6328 33.4141 46.6328 32.5V32.2891H46.8438C49.6562 32.2891 51.9766 29.9688 51.9766 27.1563C51.9766 24.3438 49.6562 22.0234 46.8438 22.0234H43.2578C42.2031 22.0234 41.2891 21.1094 41.2891 20.0547C41.2891 19 42.2031 18.0859 43.2578 18.0859H48.6016C49.4453 18.0859 50.2188 17.3828 50.2188 16.4688C50.2188 15.5547 49.5156 14.8516 48.6016 14.8516H46.6328V14.5703C46.6328 13.7266 45.9297 12.9531 45.0156 12.9531C44.1016 12.9531 43.3984 13.6563 43.3984 14.5703V14.7813H43.1875C40.375 14.7813 38.0547 17.1016 38.0547 19.9141C38.125 22.7969 40.4453 25.1172 43.2578 25.1172Z" fill="#848484"/>
</svg>
