<svg width="65" height="65" viewBox="0 0 65 65" fill="none" xmlns="http://www.w3.org/2000/svg">
<rect x="0.5" y="0.5" width="64" height="64" rx="9.5" fill="#DAF5E9" stroke="#09B96D"/>
<path d="M32.6978 38.125C32.4927 38.5645 32.3389 39.0186 32.2363 39.4873C32.1338 39.9561 32.0386 40.4395 31.9507 40.9375H18.4375V38.125H32.6978ZM18.4375 46.5625V43.75H31.9067C31.98 44.2334 32.0825 44.7095 32.2144 45.1782C32.3462 45.647 32.5146 46.1084 32.7197 46.5625H18.4375ZM15.625 52.1875H45.2661L48.0566 55H12.8125V10H37.312L49.375 22.063V34.5435C48.9502 34.1626 48.5034 33.8184 48.0347 33.5107C47.5659 33.2031 47.0752 32.9321 46.5625 32.6978V24.0625H35.3125V12.8125H15.625V52.1875ZM38.125 14.812V21.25H44.563L38.125 14.812ZM38.6523 32.5C37.0557 33.1006 35.686 34.0381 34.5435 35.3125H18.4375V32.5H38.6523ZM18.4375 21.25H32.5V24.0625H18.4375V21.25ZM43.75 26.875V29.6875H18.4375V26.875H43.75ZM55 53.5938C55 53.9746 54.8608 54.3042 54.5825 54.5825C54.3042 54.8608 53.9746 55 53.5938 55C53.2129 55 52.8833 54.8608 52.605 54.5825L46.2109 48.2104C45.6396 48.5913 45.0244 48.877 44.3652 49.0674C43.7061 49.2578 43.0322 49.3604 42.3438 49.375C41.377 49.375 40.4688 49.1919 39.6191 48.8257C38.7695 48.4595 38.0225 47.9614 37.3779 47.3315C36.7334 46.7017 36.228 45.9546 35.8618 45.0903C35.4956 44.2261 35.3125 43.3105 35.3125 42.3438C35.3125 41.377 35.4956 40.4688 35.8618 39.6191C36.228 38.7695 36.7261 38.0298 37.356 37.3999C37.9858 36.77 38.7329 36.2646 39.5972 35.8838C40.4614 35.5029 41.377 35.3125 42.3438 35.3125C43.3105 35.3125 44.2188 35.4956 45.0684 35.8618C45.918 36.228 46.6577 36.7334 47.2876 37.3779C47.9175 38.0225 48.4229 38.7695 48.8037 39.6191C49.1846 40.4688 49.375 41.377 49.375 42.3438C49.375 43.0322 49.2798 43.7061 49.0894 44.3652C48.8989 45.0244 48.606 45.6396 48.2104 46.2109L54.5825 52.605C54.8608 52.8833 55 53.2129 55 53.5938ZM38.125 42.3438C38.125 42.9297 38.2349 43.479 38.4546 43.9917C38.6743 44.5044 38.9746 44.9512 39.3555 45.332C39.7363 45.7129 40.1831 46.0132 40.6958 46.2329C41.2085 46.4526 41.7578 46.5625 42.3438 46.5625C42.9297 46.5625 43.479 46.4526 43.9917 46.2329C44.5044 46.0132 44.9512 45.7129 45.332 45.332C45.7129 44.9512 46.0132 44.5044 46.2329 43.9917C46.4526 43.479 46.5625 42.9297 46.5625 42.3438C46.5625 41.7578 46.4526 41.2085 46.2329 40.6958C46.0132 40.1831 45.7129 39.7363 45.332 39.3555C44.9512 38.9746 44.5044 38.6743 43.9917 38.4546C43.479 38.2349 42.9297 38.125 42.3438 38.125C41.7578 38.125 41.2085 38.2349 40.6958 38.4546C40.1831 38.6743 39.7363 38.9746 39.3555 39.3555C38.9746 39.7363 38.6743 40.1831 38.4546 40.6958C38.2349 41.2085 38.125 41.7578 38.125 42.3438Z" fill="#848484"/>
</svg>
