<svg width="51" height="50" viewBox="0 0 51 50" fill="none" xmlns="http://www.w3.org/2000/svg">
<rect width="50.3497" height="50" rx="5" fill="#0058EA"/>
<g clip-path="url(#clip0_1770_3172)">
<path d="M31.5625 31.5625V34.375H17.9688C16.8499 34.375 15.7768 33.9305 14.9856 33.1394C14.1945 32.3482 13.75 31.2751 13.75 30.1562C13.75 29.0374 14.1945 27.9643 14.9856 27.1731C15.7768 26.382 16.8499 25.9375 17.9688 25.9375H18.4375V24.0625H17.9688C16.3526 24.0625 14.8026 24.7045 13.6598 25.8473C12.517 26.9901 11.875 28.5401 11.875 30.1562C11.875 31.7724 12.517 33.3224 13.6598 34.4652C14.8026 35.608 16.3526 36.25 17.9688 36.25H31.5625V39.0625H39.0625V31.5625H31.5625ZM37.1875 37.1875H33.4375V33.4375H37.1875V37.1875Z" fill="white"/>
<path d="M29.6875 30.625H27.8125V27.8125H22.1875V30.625H20.3125V27.8125C20.3125 27.3152 20.51 26.8383 20.8617 26.4867C21.2133 26.135 21.6902 25.9375 22.1875 25.9375H27.8125C28.3098 25.9375 28.7867 26.135 29.1383 26.4867C29.49 26.8383 29.6875 27.3152 29.6875 27.8125V30.625ZM25 25C24.4437 25 23.9 24.8351 23.4375 24.526C22.9749 24.217 22.6145 23.7777 22.4016 23.2638C22.1887 22.7499 22.133 22.1844 22.2415 21.6388C22.3501 21.0932 22.6179 20.5921 23.0113 20.1988C23.4046 19.8054 23.9057 19.5376 24.4513 19.429C24.9969 19.3205 25.5624 19.3762 26.0763 19.5891C26.5902 19.802 27.0295 20.1624 27.3385 20.625C27.6476 21.0875 27.8125 21.6312 27.8125 22.1875C27.8118 22.9332 27.5152 23.6481 26.9879 24.1754C26.4606 24.7027 25.7457 24.9993 25 25ZM25 21.25C24.8146 21.25 24.6333 21.305 24.4792 21.408C24.325 21.511 24.2048 21.6574 24.1339 21.8287C24.0629 22 24.0443 22.1885 24.0805 22.3704C24.1167 22.5523 24.206 22.7193 24.3371 22.8504C24.4682 22.9815 24.6352 23.0708 24.8171 23.107C24.999 23.1432 25.1875 23.1246 25.3588 23.0536C25.5301 22.9827 25.6765 22.8625 25.7795 22.7083C25.8825 22.5542 25.9375 22.3729 25.9375 22.1875C25.9375 21.9389 25.8387 21.7004 25.6629 21.5246C25.4871 21.3488 25.2486 21.25 25 21.25Z" fill="white"/>
<path d="M32.0312 13.75H18.4375V10.9375H10.9375V18.4375H18.4375V15.625H32.0312C33.1501 15.625 34.2232 16.0695 35.0144 16.8606C35.8055 17.6518 36.25 18.7249 36.25 19.8438C36.25 20.9626 35.8055 22.0357 35.0144 22.8269C34.2232 23.618 33.1501 24.0625 32.0312 24.0625H31.5625V25.9375H32.0312C33.6474 25.9375 35.1974 25.2955 36.3402 24.1527C37.483 23.0099 38.125 21.4599 38.125 19.8438C38.125 18.2276 37.483 16.6776 36.3402 15.5348C35.1974 14.392 33.6474 13.75 32.0312 13.75ZM16.5625 16.5625H12.8125V12.8125H16.5625V16.5625Z" fill="white"/>
</g>
<defs>
<clipPath id="clip0_1770_3172">
<rect width="30" height="30" fill="white" transform="translate(10 10)"/>
</clipPath>
</defs>
</svg>
