<svg width="51" height="50" viewBox="0 0 51 50" fill="none" xmlns="http://www.w3.org/2000/svg">
<rect width="50.3497" height="50" rx="5" fill="#09B96D"/>
<path d="M23.3137 37.0275C23.215 37.2001 23.0639 37.3369 22.8823 37.418C22.7008 37.4991 22.4981 37.5204 22.3037 37.4788L22.1449 37.445C21.4836 37.3033 20.8593 37.0247 20.3122 36.6272C19.765 36.2296 19.3072 35.7219 18.9682 35.1366C18.6292 34.5514 18.4165 33.9017 18.3438 33.2292C18.2711 32.5568 18.3401 31.8767 18.5462 31.2325L19.3412 28.75H17.9199C14.6137 28.75 12.2787 25.5112 13.3249 22.375L15.2737 16.5275C15.5434 15.7187 16.0607 15.0153 16.7523 14.5168C17.4439 14.0183 18.2749 13.75 19.1274 13.75H25.7387C27.0274 13.75 28.2749 14.1925 29.2737 14.9988C29.4513 14.625 29.7312 14.3093 30.081 14.0882C30.4308 13.8672 30.8362 13.7499 31.2499 13.75H34.0624C35.2699 13.75 36.2499 14.73 36.2499 15.9375V26.5625C36.2499 27.1427 36.0195 27.6991 35.6092 28.1093C35.199 28.5195 34.6426 28.75 34.0624 28.75H28.2249C28.1699 28.75 28.1158 28.7646 28.0681 28.7923C28.0205 28.8199 27.981 28.8597 27.9537 28.9075L23.3137 37.0275ZM29.0624 17.3L28.2074 16.5525C27.524 15.9546 26.6468 15.6251 25.7387 15.625H19.1274C18.6683 15.6251 18.2208 15.7696 17.8484 16.0382C17.476 16.3067 17.1975 16.6856 17.0524 17.1213L15.1037 22.9675C14.955 23.4137 14.9144 23.889 14.9853 24.354C15.0563 24.819 15.2367 25.2605 15.5117 25.6421C15.7867 26.0237 16.1485 26.3344 16.5672 26.5488C16.9859 26.7632 17.4496 26.875 17.9199 26.875H20.6249C20.7726 26.875 20.9181 26.9099 21.0497 26.9768C21.1813 27.0438 21.2952 27.1408 21.3822 27.2601C21.4692 27.3793 21.5267 27.5175 21.5503 27.6632C21.5738 27.8089 21.5625 27.9582 21.5174 28.0988L20.3324 31.8038C20.1038 32.5176 20.1536 33.2916 20.4719 33.9702C20.7903 34.6489 21.3536 35.182 22.0487 35.4625L26.3262 27.9775C26.5174 27.6427 26.7938 27.3644 27.1272 27.1708C27.4607 26.9772 27.8394 26.8751 28.2249 26.875H29.0624V17.3ZM30.9374 26.875H34.0624C34.1453 26.875 34.2248 26.8421 34.2834 26.7835C34.342 26.7249 34.3749 26.6454 34.3749 26.5625V15.9375C34.3749 15.8546 34.342 15.7751 34.2834 15.7165C34.2248 15.6579 34.1453 15.625 34.0624 15.625H31.2499C31.1671 15.625 31.0876 15.6579 31.029 15.7165C30.9704 15.7751 30.9374 15.8546 30.9374 15.9375V26.875Z" fill="white"/>
</svg>
