<svg width="51" height="50" viewBox="0 0 51 50" fill="none" xmlns="http://www.w3.org/2000/svg">
<rect x="0.0979004" width="50.3497" height="50" rx="5" fill="#0058EA"/>
<path d="M26.6862 12.9725C26.785 12.7999 26.936 12.6632 27.1176 12.582C27.2992 12.5009 27.5018 12.4796 27.6962 12.5213L27.855 12.555C28.5163 12.6967 29.1407 12.9753 29.6878 13.3728C30.2349 13.7704 30.6927 14.2782 31.0317 14.8634C31.3707 15.4486 31.5834 16.0983 31.6561 16.7708C31.7288 17.4432 31.6599 18.1234 31.4538 18.7675L30.6588 21.25H32.08C35.3862 21.25 37.7213 24.4888 36.675 27.625L34.7262 33.4725C34.4566 34.2813 33.9393 34.9847 33.2476 35.4832C32.556 35.9817 31.7251 36.25 30.8725 36.25H24.2613C22.9748 36.2502 21.7271 35.8095 20.7263 35.0013C20.5487 35.375 20.2687 35.6907 19.9189 35.9118C19.5691 36.1328 19.1638 36.2501 18.75 36.25H15.9375C15.3573 36.25 14.8009 36.0195 14.3907 35.6093C13.9805 35.1991 13.75 34.6427 13.75 34.0625V23.4375C13.75 22.23 14.73 21.25 15.9375 21.25H21.775C21.8301 21.25 21.8842 21.2354 21.9318 21.2078C21.9795 21.1801 22.0189 21.1403 22.0463 21.0925L26.6862 12.9725ZM20.9375 32.7L21.7912 33.4475C22.475 34.0457 23.3527 34.3752 24.2613 34.375H30.8725C31.3316 34.3749 31.7791 34.2304 32.1515 33.9618C32.5239 33.6933 32.8024 33.3144 32.9475 32.8788L34.8962 27.0325C35.045 26.5863 35.0856 26.111 35.0146 25.646C34.9437 25.181 34.7633 24.7395 34.4882 24.3579C34.2132 23.9763 33.8514 23.6656 33.4327 23.4512C33.014 23.2368 32.5504 23.125 32.08 23.125H29.375C29.2274 23.125 29.0819 23.0901 28.9503 23.0232C28.8187 22.9562 28.7048 22.8592 28.6178 22.7399C28.5308 22.6207 28.4732 22.4825 28.4497 22.3368C28.4262 22.1911 28.4374 22.0418 28.4825 21.9013L29.6675 18.1963C29.8962 17.4824 29.8464 16.7084 29.528 16.0298C29.2097 15.3511 28.6464 14.818 27.9513 14.5375L23.6737 22.0225C23.4825 22.3573 23.2062 22.6356 22.8727 22.8292C22.5393 23.0228 22.1606 23.1249 21.775 23.125H20.9375V32.7ZM19.0625 23.125H15.9375C15.8546 23.125 15.7751 23.1579 15.7165 23.2165C15.6579 23.2751 15.625 23.3546 15.625 23.4375V34.0625C15.625 34.235 15.765 34.375 15.9375 34.375H18.75C18.8329 34.375 18.9124 34.3421 18.971 34.2835C19.0296 34.2249 19.0625 34.1454 19.0625 34.0625V23.125Z" fill="white"/>
</svg>
