<svg width="51" height="50" viewBox="0 0 51 50" fill="none" xmlns="http://www.w3.org/2000/svg">
<rect width="50.3497" height="50" rx="5" fill="#09B96D"/>
<path d="M25 16.8887C25.7013 16.8887 26.3988 17.3312 26.93 18.2162L34.32 30.5337C35.3838 32.3024 34.5625 33.7499 32.5 33.7499H17.5C15.4375 33.7499 14.6163 32.3012 15.68 30.5337L23.07 18.2162C23.6013 17.3312 24.2988 16.8887 25 16.8887ZM25 14.3887C23.38 14.3887 21.8975 15.3137 20.9263 16.9274L13.5363 29.2474C12.5538 30.8837 12.4463 32.6287 13.2425 34.0349C14.0388 35.4412 15.5913 36.2499 17.5 36.2499H32.5C34.4088 36.2499 35.9625 35.4424 36.7575 34.0362C37.5525 32.6299 37.4463 30.8849 36.4638 29.2487L29.0738 16.9312C28.1025 15.3137 26.62 14.3887 25 14.3887Z" fill="white"/>
<path d="M25 31.625C25.8975 31.625 26.625 30.8975 26.625 30C26.625 29.1025 25.8975 28.375 25 28.375C24.1025 28.375 23.375 29.1025 23.375 30C23.375 30.8975 24.1025 31.625 25 31.625Z" fill="white"/>
<path d="M26.875 22.5C26.875 21.4625 26.0363 20.625 25 20.625C24.6932 20.6254 24.3912 20.701 24.1205 20.8453C23.8497 20.9895 23.6185 21.198 23.4471 21.4525C23.2757 21.7069 23.1694 21.9995 23.1374 22.3046C23.1054 22.6098 23.1488 22.9181 23.2638 23.2025C23.9563 24.9225 25 27.5 25 27.5L26.7388 23.2025C26.8238 22.9863 26.875 22.7487 26.875 22.5Z" fill="white"/>
</svg>
